<svg version="1.2" xmlns="http://www.w3.org/2000/svg" viewBox="0 0 1440 490" width="1440" height="490">
	<title>curve-svg</title>
	<defs>
		<linearGradient id="g1" x2="1" gradientUnits="userSpaceOnUse" gradientTransform="matrix(0,-459.886,8640,0,-7200,459.886)">
			<stop offset="0" stop-color="#fe7c57"/>
			<stop offset="1" stop-color="#fe7c57"/>
		</linearGradient>
	</defs>
	<style>
		.s0 { fill: url(#g1) } 
	</style>
	<path class="s0" d="m1440 441l-60-57.2c-60-56.8-180-171.8-300-187.8-120-16-240 65-360 81.7-120 16.3-240-32.7-360-57.2-120-24.5-240-24.5-360-8.2-120 16.7-240 48.7-360 73.5-120 24.2-240 41.2-360 49-120 8.2-240 8.2-360 16.4-120 7.8-240 24.8-360 16.3-120-8.5-240-40.5-360-89.8-120-48.7-240-114.7-360-114.4-120-0.3-240 65.7-360 130.7-120 65-240 131-360 155.2-120 24.8-240 7.8-360-65.4-120-73.8-240-203.8-360-220.5-120-16.3-240 81.7-360 114.4-120 32.3-240 0.3-360 16.3-120 16-240 82-360 57.2-120-24.2-240-139.2-360-187.9-120-49.3-240-32.3-360-24.5-120 8.2-240 8.2-360 32.7-120 24.5-240 73.5-360 114.3-120 41.2-240 73.2-360 81.7-120 8.5-240-8.5-360-16.3-120-8.2-240-8.2-300-8.2h-60v-343h60c60 0 180 0 300 0q180 0 360 0 180 0 360 0 180 0 360 0 180 0 360 0 180 0 360 0 180 0 360 0 180 0 360 0 180 0 360 0 180 0 360 0 180 0 360 0 180 0 360 0 180 0 360 0 180 0 360 0 180 0 360 0 180 0 360 0 180 0 360 0 180 0 360 0 180 0 360 0 180 0 360 0 180 0 360 0 180 0 360 0 180 0 360 0c120 0 240 0 300 0h60z"/>
</svg>