<svg id="wave" style="transform:rotate(0deg); transition: 0.3s" viewBox="0 0 1440 490" version="1.1" xmlns="http://www.w3.org/2000/svg"><defs><linearGradient id="sw-gradient-0" x1="0" x2="0" y1="1" y2="0"><stop stop-color="rgba(254, 124, 87, 1)" offset="0%"></stop><stop stop-color="rgba(254, 124, 87, 1)" offset="100%"></stop></linearGradient></defs><path style="transform:translate(0, 0px); opacity:1" fill="url(#sw-gradient-0)" d="M0,49L60,106.2C120,163,240,278,360,294C480,310,600,229,720,212.3C840,196,960,245,1080,269.5C1200,294,1320,294,1440,277.7C1560,261,1680,229,1800,204.2C1920,180,2040,163,2160,155.2C2280,147,2400,147,2520,138.8C2640,131,2760,114,2880,122.5C3000,131,3120,163,3240,212.3C3360,261,3480,327,3600,326.7C3720,327,3840,261,3960,196C4080,131,4200,65,4320,40.8C4440,16,4560,33,4680,106.2C4800,180,4920,310,5040,326.7C5160,343,5280,245,5400,212.3C5520,180,5640,212,5760,196C5880,180,6000,114,6120,138.8C6240,163,6360,278,6480,326.7C6600,376,6720,359,6840,351.2C6960,343,7080,343,7200,318.5C7320,294,7440,245,7560,204.2C7680,163,7800,131,7920,122.5C8040,114,8160,131,8280,138.8C8400,147,8520,147,8580,147L8640,147L8640,490L8580,490C8520,490,8400,490,8280,490C8160,490,8040,490,7920,490C7800,490,7680,490,7560,490C7440,490,7320,490,7200,490C7080,490,6960,490,6840,490C6720,490,6600,490,6480,490C6360,490,6240,490,6120,490C6000,490,5880,490,5760,490C5640,490,5520,490,5400,490C5280,490,5160,490,5040,490C4920,490,4800,490,4680,490C4560,490,4440,490,4320,490C4200,490,4080,490,3960,490C3840,490,3720,490,3600,490C3480,490,3360,490,3240,490C3120,490,3000,490,2880,490C2760,490,2640,490,2520,490C2400,490,2280,490,2160,490C2040,490,1920,490,1800,490C1680,490,1560,490,1440,490C1320,490,1200,490,1080,490C960,490,840,490,720,490C600,490,480,490,360,490C240,490,120,490,60,490L0,490Z"></path></svg>